<svg id="my-svg" width="100%" xmlns="http://www.w3.org/2000/svg" xmlns:xlink="http://www.w3.org/1999/xlink" class="flowchart" style="max-width: 1383.73px; background-color: white;" viewBox="0 0 1383.7265625 1322.142578125" role="graphics-document document" aria-roledescription="flowchart-v2"><style>#my-svg{font-family:Inter,Arial,sans-serif;font-size:16px;fill:#333;}@keyframes edge-animation-frame{from{stroke-dashoffset:0;}}@keyframes dash{to{stroke-dashoffset:0;}}#my-svg .edge-animation-slow{stroke-dasharray:9,5!important;stroke-dashoffset:900;animation:dash 50s linear infinite;stroke-linecap:round;}#my-svg .edge-animation-fast{stroke-dasharray:9,5!important;stroke-dashoffset:900;animation:dash 20s linear infinite;stroke-linecap:round;}#my-svg .error-icon{fill:#552222;}#my-svg .error-text{fill:#552222;stroke:#552222;}#my-svg .edge-thickness-normal{stroke-width:1px;}#my-svg .edge-thickness-thick{stroke-width:3.5px;}#my-svg .edge-pattern-solid{stroke-dasharray:0;}#my-svg .edge-thickness-invisible{stroke-width:0;fill:none;}#my-svg .edge-pattern-dashed{stroke-dasharray:3;}#my-svg .edge-pattern-dotted{stroke-dasharray:2;}#my-svg .marker{fill:#333333;stroke:#333333;}#my-svg .marker.cross{stroke:#333333;}#my-svg svg{font-family:Inter,Arial,sans-serif;font-size:16px;}#my-svg p{margin:0;}#my-svg .label{font-family:Inter,Arial,sans-serif;color:#333;}#my-svg .cluster-label text{fill:#333;}#my-svg .cluster-label span{color:#333;}#my-svg .cluster-label span p{background-color:transparent;}#my-svg .label text,#my-svg span{fill:#333;color:#333;}#my-svg .node rect,#my-svg .node circle,#my-svg .node ellipse,#my-svg .node polygon,#my-svg .node path{fill:#ECECFF;stroke:#9370DB;stroke-width:1px;}#my-svg .rough-node .label text,#my-svg .node .label text,#my-svg .image-shape .label,#my-svg .icon-shape .label{text-anchor:middle;}#my-svg .node .katex path{fill:#000;stroke:#000;stroke-width:1px;}#my-svg .rough-node .label,#my-svg .node .label,#my-svg .image-shape .label,#my-svg .icon-shape .label{text-align:center;}#my-svg .node.clickable{cursor:pointer;}#my-svg .root .anchor path{fill:#333333!important;stroke-width:0;stroke:#333333;}#my-svg .arrowheadPath{fill:#333333;}#my-svg .edgePath .path{stroke:#333333;stroke-width:2.0px;}#my-svg .flowchart-link{stroke:#333333;fill:none;}#my-svg .edgeLabel{background-color:#ffffff;text-align:center;}#my-svg .edgeLabel p{background-color:#ffffff;}#my-svg .edgeLabel rect{opacity:0.5;background-color:#ffffff;fill:#ffffff;}#my-svg .labelBkg{background-color:rgba(255, 255, 255, 0.5);}#my-svg .cluster rect{fill:#ffffde;stroke:#aaaa33;stroke-width:1px;}#my-svg .cluster text{fill:#333;}#my-svg .cluster span{color:#333;}#my-svg div.mermaidTooltip{position:absolute;text-align:center;max-width:200px;padding:2px;font-family:Inter,Arial,sans-serif;font-size:12px;background:hsl(80, 100%, 96.2745098039%);border:1px solid #aaaa33;border-radius:2px;pointer-events:none;z-index:100;}#my-svg .flowchartTitleText{text-anchor:middle;font-size:18px;fill:#333;}#my-svg rect.text{fill:none;stroke-width:0;}#my-svg .icon-shape,#my-svg .image-shape{background-color:#ffffff;text-align:center;}#my-svg .icon-shape p,#my-svg .image-shape p{background-color:#ffffff;padding:2px;}#my-svg .icon-shape .label rect,#my-svg .image-shape .label rect{opacity:0.5;background-color:#ffffff;fill:#ffffff;}#my-svg .label-icon{display:inline-block;height:1em;overflow:visible;vertical-align:-0.125em;}#my-svg .node .label-icon path{fill:currentColor;stroke:revert;stroke-width:revert;}#my-svg :root{--mermaid-font-family:"trebuchet ms",verdana,arial,sans-serif;}#my-svg .service&gt;*{fill:#e3f2fd!important;stroke:#1976d2!important;}#my-svg .service span{fill:#e3f2fd!important;stroke:#1976d2!important;}#my-svg .data&gt;*{fill:#f3e5f5!important;stroke:#7b1fa2!important;}#my-svg .data span{fill:#f3e5f5!important;stroke:#7b1fa2!important;}#my-svg .optional&gt;*{fill:#fff3e0!important;stroke:#f57c00!important;}#my-svg .optional span{fill:#fff3e0!important;stroke:#f57c00!important;}#my-svg .host&gt;*{fill:#e8f5e8!important;stroke:#388e3c!important;}#my-svg .host span{fill:#e8f5e8!important;stroke:#388e3c!important;}</style><g><marker id="my-svg_flowchart-v2-pointEnd" class="marker flowchart-v2" viewBox="0 0 10 10" refX="5" refY="5" markerUnits="userSpaceOnUse" markerWidth="8" markerHeight="8" orient="auto"><path d="M 0 0 L 10 5 L 0 10 z" class="arrowMarkerPath" style="stroke-width: 1; stroke-dasharray: 1, 0;"/></marker><marker id="my-svg_flowchart-v2-pointStart" class="marker flowchart-v2" viewBox="0 0 10 10" refX="4.5" refY="5" markerUnits="userSpaceOnUse" markerWidth="8" markerHeight="8" orient="auto"><path d="M 0 5 L 10 10 L 10 0 z" class="arrowMarkerPath" style="stroke-width: 1; stroke-dasharray: 1, 0;"/></marker><marker id="my-svg_flowchart-v2-circleEnd" class="marker flowchart-v2" viewBox="0 0 10 10" refX="11" refY="5" markerUnits="userSpaceOnUse" markerWidth="11" markerHeight="11" orient="auto"><circle cx="5" cy="5" r="5" class="arrowMarkerPath" style="stroke-width: 1; stroke-dasharray: 1, 0;"/></marker><marker id="my-svg_flowchart-v2-circleStart" class="marker flowchart-v2" viewBox="0 0 10 10" refX="-1" refY="5" markerUnits="userSpaceOnUse" markerWidth="11" markerHeight="11" orient="auto"><circle cx="5" cy="5" r="5" class="arrowMarkerPath" style="stroke-width: 1; stroke-dasharray: 1, 0;"/></marker><marker id="my-svg_flowchart-v2-crossEnd" class="marker cross flowchart-v2" viewBox="0 0 11 11" refX="12" refY="5.2" markerUnits="userSpaceOnUse" markerWidth="11" markerHeight="11" orient="auto"><path d="M 1,1 l 9,9 M 10,1 l -9,9" class="arrowMarkerPath" style="stroke-width: 2; stroke-dasharray: 1, 0;"/></marker><marker id="my-svg_flowchart-v2-crossStart" class="marker cross flowchart-v2" viewBox="0 0 11 11" refX="-1" refY="5.2" markerUnits="userSpaceOnUse" markerWidth="11" markerHeight="11" orient="auto"><path d="M 1,1 l 9,9 M 10,1 l -9,9" class="arrowMarkerPath" style="stroke-width: 2; stroke-dasharray: 1, 0;"/></marker><g class="root"><g class="clusters"><g class="cluster" id="subGraph6" data-look="classic"><rect style="" x="8" y="1138.1426315307617" width="1286.76171875" height="176"/><g class="cluster-label" transform="translate(606.037109375, 1138.1426315307617)"><foreignObject width="90.6875" height="24"><div xmlns="http://www.w3.org/1999/xhtml" style="display: table-cell; white-space: nowrap; line-height: 1.5;"><span class="nodeLabel"><p>Host System</p></span></div></foreignObject></g></g><g class="cluster" id="subGraph5" data-look="classic"><rect style="" x="50.5" y="8" width="1325.2265625" height="1080.1426315307617"/><g class="cluster-label" transform="translate(656.20703125, 8)"><foreignObject width="113.8125" height="24"><div xmlns="http://www.w3.org/1999/xhtml" style="display: table-cell; white-space: nowrap; line-height: 1.5;"><span class="nodeLabel"><p>Docker Network</p></span></div></foreignObject></g></g><g class="cluster" id="subGraph4" data-look="classic"><rect style="" x="86.28125" y="460" width="256.875" height="176"/><g class="cluster-label" transform="translate(152.0234375, 460)"><foreignObject width="125.390625" height="24"><div xmlns="http://www.w3.org/1999/xhtml" style="display: table-cell; white-space: nowrap; line-height: 1.5;"><span class="nodeLabel"><p>Optional Services</p></span></div></foreignObject></g></g><g class="cluster" id="Observability" data-look="classic"><rect style="" x="363.15625" y="33" width="552.375" height="603"/><g class="cluster-label" transform="translate(593.1015625, 33)"><foreignObject width="92.484375" height="24"><div xmlns="http://www.w3.org/1999/xhtml" style="display: table-cell; white-space: nowrap; line-height: 1.5;"><span class="nodeLabel"><p>Observability</p></span></div></foreignObject></g></g><g class="cluster" id="subGraph2" data-look="classic"><rect style="" x="958.203125" y="234" width="278.515625" height="176"/><g class="cluster-label" transform="translate(1033.4296875, 234)"><foreignObject width="128.0625" height="24"><div xmlns="http://www.w3.org/1999/xhtml" style="display: table-cell; white-space: nowrap; line-height: 1.5;"><span class="nodeLabel"><p>Device Simulation</p></span></div></foreignObject></g></g><g class="cluster" id="subGraph1" data-look="classic"><rect style="" x="935.53125" y="460" width="375.39453125" height="176"/><g class="cluster-label" transform="translate(1072.541015625, 460)"><foreignObject width="101.375" height="24"><div xmlns="http://www.w3.org/1999/xhtml" style="display: table-cell; white-space: nowrap; line-height: 1.5;"><span class="nodeLabel"><p>Fleet Services</p></span></div></foreignObject></g></g><g class="cluster" id="subGraph0" data-look="classic"><rect style="" x="445.8828125" y="686" width="414.4765625" height="377.1426315307617"/><g class="cluster-label" transform="translate(603.91796875, 686)"><foreignObject width="98.40625" height="24"><div xmlns="http://www.w3.org/1999/xhtml" style="display: table-cell; white-space: nowrap; line-height: 1.5;"><span class="nodeLabel"><p>Web Services</p></span></div></foreignObject></g></g></g><g class="edgePaths"><path d="M710.999,861L713.228,865.167C715.456,869.333,719.914,877.667,722.142,885.333C724.371,893,724.371,900,724.371,903.5L724.371,907" id="L_elabftw_mysql_0" class="edge-thickness-normal edge-pattern-solid edge-thickness-normal edge-pattern-solid flowchart-link" style=";" data-edge="true" data-et="edge" data-id="L_elabftw_mysql_0" data-points="W3sieCI6NzEwLjk5OTAyMzQzNzUsInkiOjg2MX0seyJ4Ijo3MjQuMzcxMDkzNzUsInkiOjg4Nn0seyJ4Ijo3MjQuMzcxMDkzNzUsInkiOjkxMX1d" marker-end="url(#my-svg_flowchart-v2-pointEnd)"/><path d="M1185.16,611L1190.96,615.167C1196.76,619.333,1208.361,627.667,1214.161,636C1219.961,644.333,1219.961,652.667,1128.448,661C1036.935,669.333,853.909,677.667,762.396,685.333C670.883,693,670.883,700,670.883,703.5L670.883,707" id="L_fleet_elabftw_0" class="edge-thickness-normal edge-pattern-solid edge-thickness-normal edge-pattern-solid flowchart-link" style=";" data-edge="true" data-et="edge" data-id="L_fleet_elabftw_0" data-points="W3sieCI6MTE4NS4xNTk4MDExMzYzNjM3LCJ5Ijo2MTF9LHsieCI6MTIxOS45NjA5Mzc1LCJ5Ijo2MzZ9LHsieCI6MTIxOS45NjA5Mzc1LCJ5Ijo2NjF9LHsieCI6NjcwLjg4MjgxMjUsInkiOjY4Nn0seyJ4Ijo2NzAuODgyODEyNSwieSI6NzExfV0=" marker-end="url(#my-svg_flowchart-v2-pointEnd)"/><path d="M1096.77,611L1096.725,615.167C1096.679,619.333,1096.587,627.667,1096.542,636C1096.496,644.333,1096.496,652.667,998.061,661C899.625,669.333,702.754,677.667,604.318,698.5C505.883,719.333,505.883,752.667,505.883,786C505.883,819.333,505.883,852.667,529.684,878.982C553.484,905.297,601.086,924.594,624.887,934.242L648.688,943.891" id="L_fleet_mysql_0" class="edge-thickness-normal edge-pattern-solid edge-thickness-normal edge-pattern-solid flowchart-link" style=";" data-edge="true" data-et="edge" data-id="L_fleet_mysql_0" data-points="W3sieCI6MTA5Ni43NzAxOTcwODgwNjgyLCJ5Ijo2MTF9LHsieCI6MTA5Ni40OTYwOTM3NSwieSI6NjM2fSx7IngiOjEwOTYuNDk2MDkzNzUsInkiOjY2MX0seyJ4Ijo1MDUuODgyODEyNSwieSI6Njg2fSx7IngiOjUwNS44ODI4MTI1LCJ5Ijo3ODZ9LHsieCI6NTA1Ljg4MjgxMjUsInkiOjg4Nn0seyJ4Ijo2NTIuMzk0NTMxMjUsInkiOjk0NS4zOTMyODAxODE4NjI5fV0=" marker-end="url(#my-svg_flowchart-v2-pointEnd)"/><path d="M1097.461,373L1097.461,379.167C1097.461,385.333,1097.461,397.667,1097.461,408C1097.461,418.333,1097.461,426.667,1097.461,435C1097.461,443.333,1097.461,451.667,1097.461,459.333C1097.461,467,1097.461,474,1097.461,477.5L1097.461,481" id="L_sim_fleet_0" class="edge-thickness-normal edge-pattern-solid edge-thickness-normal edge-pattern-solid flowchart-link" style=";" data-edge="true" data-et="edge" data-id="L_sim_fleet_0" data-points="W3sieCI6MTA5Ny40NjA5Mzc1LCJ5IjozNzN9LHsieCI6MTA5Ny40NjA5Mzc1LCJ5Ijo0MTB9LHsieCI6MTA5Ny40NjA5Mzc1LCJ5Ijo0MzV9LHsieCI6MTA5Ny40NjA5Mzc1LCJ5Ijo0NjB9LHsieCI6MTA5Ny40NjA5Mzc1LCJ5Ijo0ODV9XQ==" marker-end="url(#my-svg_flowchart-v2-pointEnd)"/><path d="M779.494,385L786.75,389.167C794.007,393.333,808.519,401.667,815.775,410C823.031,418.333,823.031,426.667,823.031,435C823.031,443.333,823.031,451.667,846.98,463.513C870.928,475.359,918.825,490.718,942.774,498.397L966.722,506.077" id="L_prometheus_fleet_0" class="edge-thickness-normal edge-pattern-solid edge-thickness-normal edge-pattern-solid flowchart-link" style=";" data-edge="true" data-et="edge" data-id="L_prometheus_fleet_0" data-points="W3sieCI6Nzc5LjQ5NDMxODE4MTgxODIsInkiOjM4NX0seyJ4Ijo4MjMuMDMxMjUsInkiOjQxMH0seyJ4Ijo4MjMuMDMxMjUsInkiOjQzNX0seyJ4Ijo4MjMuMDMxMjUsInkiOjQ2MH0seyJ4Ijo5NzAuNTMxMjUsInkiOjUwNy4yOTgwODk3ODg0ODE4fV0=" marker-end="url(#my-svg_flowchart-v2-pointEnd)"/><path d="M721.058,385L724.45,389.167C727.841,393.333,734.624,401.667,738.015,410C741.406,418.333,741.406,426.667,741.406,435C741.406,443.333,741.406,451.667,741.406,459.333C741.406,467,741.406,474,741.406,477.5L741.406,481" id="L_prometheus_mimir_0" class="edge-thickness-normal edge-pattern-solid edge-thickness-normal edge-pattern-solid flowchart-link" style=";" data-edge="true" data-et="edge" data-id="L_prometheus_mimir_0" data-points="W3sieCI6NzIxLjA1ODIzODYzNjM2MzYsInkiOjM4NX0seyJ4Ijo3NDEuNDA2MjUsInkiOjQxMH0seyJ4Ijo3NDEuNDA2MjUsInkiOjQzNX0seyJ4Ijo3NDEuNDA2MjUsInkiOjQ2MH0seyJ4Ijo3NDEuNDA2MjUsInkiOjQ4NX1d" marker-end="url(#my-svg_flowchart-v2-pointEnd)"/><path d="M643.503,184L647.883,188.167C652.262,192.333,661.022,200.667,665.402,209C669.781,217.333,669.781,225.667,669.781,233.333C669.781,241,669.781,248,669.781,251.5L669.781,255" id="L_grafana_prometheus_0" class="edge-thickness-normal edge-pattern-solid edge-thickness-normal edge-pattern-solid flowchart-link" style=";" data-edge="true" data-et="edge" data-id="L_grafana_prometheus_0" data-points="W3sieCI6NjQzLjUwMjg0MDkwOTA5MDksInkiOjE4NH0seyJ4Ijo2NjkuNzgxMjUsInkiOjIwOX0seyJ4Ijo2NjkuNzgxMjUsInkiOjIzNH0seyJ4Ijo2NjkuNzgxMjUsInkiOjI1OX1d" marker-end="url(#my-svg_flowchart-v2-pointEnd)"/><path d="M511.686,184L507.348,188.167C503.009,192.333,494.333,200.667,489.995,209C485.656,217.333,485.656,225.667,485.656,244.5C485.656,263.333,485.656,292.667,485.656,322C485.656,351.333,485.656,380.667,485.656,399.5C485.656,418.333,485.656,426.667,485.656,435C485.656,443.333,485.656,451.667,506.276,462.928C526.895,474.19,568.135,488.38,588.754,495.475L609.374,502.57" id="L_grafana_mimir_0" class="edge-thickness-normal edge-pattern-solid edge-thickness-normal edge-pattern-solid flowchart-link" style=";" data-edge="true" data-et="edge" data-id="L_grafana_mimir_0" data-points="W3sieCI6NTExLjY4NjA3OTU0NTQ1NDU2LCJ5IjoxODR9LHsieCI6NDg1LjY1NjI1LCJ5IjoyMDl9LHsieCI6NDg1LjY1NjI1LCJ5IjoyMzR9LHsieCI6NDg1LjY1NjI1LCJ5IjozMjJ9LHsieCI6NDg1LjY1NjI1LCJ5Ijo0MTB9LHsieCI6NDg1LjY1NjI1LCJ5Ijo0MzV9LHsieCI6NDg1LjY1NjI1LCJ5Ijo0NjB9LHsieCI6NjEzLjE1NjI1LCJ5Ijo1MDMuODcwOTY3NzQxOTM1NX1d" marker-end="url(#my-svg_flowchart-v2-pointEnd)"/><path d="M214.719,611L214.719,615.167C214.719,619.333,214.719,627.667,214.719,636C214.719,644.333,214.719,652.667,259.913,661C305.107,669.333,395.495,677.667,449.269,686.471C503.043,695.276,520.204,704.552,528.784,709.19L537.364,713.828" id="L_mcp_elabftw_0" class="edge-thickness-normal edge-pattern-dotted edge-thickness-normal edge-pattern-solid flowchart-link" style=";" data-edge="true" data-et="edge" data-id="L_mcp_elabftw_0" data-points="W3sieCI6MjE0LjcxODc1LCJ5Ijo2MTF9LHsieCI6MjE0LjcxODc1LCJ5Ijo2MzZ9LHsieCI6MjE0LjcxODc1LCJ5Ijo2NjF9LHsieCI6NDg1Ljg4MjgxMjUsInkiOjY4Nn0seyJ4Ijo1NDAuODgyODEyNSwieSI6NzE1LjcyOTcyOTcyOTcyOTd9XQ==" marker-end="url(#my-svg_flowchart-v2-pointEnd)"/><path d="M724.371,1038.143L724.371,1042.309C724.371,1046.476,724.371,1054.809,724.371,1063.143C724.371,1071.476,724.371,1079.809,724.371,1088.143C724.371,1096.476,724.371,1104.809,724.371,1113.143C724.371,1121.476,724.371,1129.809,721.002,1137.651C717.633,1145.493,710.895,1152.844,707.526,1156.519L704.157,1160.194" id="L_mysql_volumes_0" class="edge-thickness-normal edge-pattern-solid edge-thickness-normal edge-pattern-solid flowchart-link" style=";" data-edge="true" data-et="edge" data-id="L_mysql_volumes_0" data-points="W3sieCI6NzI0LjM3MTA5Mzc1LCJ5IjoxMDM4LjE0MjYzMTUzMDc2MTd9LHsieCI6NzI0LjM3MTA5Mzc1LCJ5IjoxMDYzLjE0MjYzMTUzMDc2MTd9LHsieCI6NzI0LjM3MTA5Mzc1LCJ5IjoxMDg4LjE0MjYzMTUzMDc2MTd9LHsieCI6NzI0LjM3MTA5Mzc1LCJ5IjoxMTEzLjE0MjYzMTUzMDc2MTd9LHsieCI6NzI0LjM3MTA5Mzc1LCJ5IjoxMTM4LjE0MjYzMTUzMDc2MTd9LHsieCI6NzAxLjQ1NDA1NzE3MzI5NTUsInkiOjExNjMuMTQyNjMxNTMwNzYxN31d" marker-end="url(#my-svg_flowchart-v2-pointEnd)"/><path d="M792.683,611L796.075,615.167C799.466,619.333,806.249,627.667,809.64,636C813.031,644.333,813.031,652.667,729.639,661C646.247,669.333,479.464,677.667,396.072,698.5C312.68,719.333,312.68,752.667,312.68,786C312.68,819.333,312.68,852.667,312.68,884.095C312.68,915.524,312.68,945.048,312.68,974.571C312.68,1004.095,312.68,1033.619,312.68,1052.547C312.68,1071.476,312.68,1079.809,312.68,1088.143C312.68,1096.476,312.68,1104.809,312.68,1113.143C312.68,1121.476,312.68,1129.809,353.979,1144.955C395.279,1160.101,477.879,1182.059,519.178,1193.039L560.478,1204.018" id="L_mimir_volumes_0" class="edge-thickness-normal edge-pattern-solid edge-thickness-normal edge-pattern-solid flowchart-link" style=";" data-edge="true" data-et="edge" data-id="L_mimir_volumes_0" data-points="W3sieCI6NzkyLjY4MzIzODYzNjM2MzYsInkiOjYxMX0seyJ4Ijo4MTMuMDMxMjUsInkiOjYzNn0seyJ4Ijo4MTMuMDMxMjUsInkiOjY2MX0seyJ4IjozMTIuNjc5Njg3NSwieSI6Njg2fSx7IngiOjMxMi42Nzk2ODc1LCJ5Ijo3ODZ9LHsieCI6MzEyLjY3OTY4NzUsInkiOjg4Nn0seyJ4IjozMTIuNjc5Njg3NSwieSI6OTc0LjU3MTMxNTc2NTM4MDl9LHsieCI6MzEyLjY3OTY4NzUsInkiOjEwNjMuMTQyNjMxNTMwNzYxN30seyJ4IjozMTIuNjc5Njg3NSwieSI6MTA4OC4xNDI2MzE1MzA3NjE3fSx7IngiOjMxMi42Nzk2ODc1LCJ5IjoxMTEzLjE0MjYzMTUzMDc2MTd9LHsieCI6MzEyLjY3OTY4NzUsInkiOjExMzguMTQyNjMxNTMwNzYxN30seyJ4Ijo1NjQuMzQzNzUsInkiOjEyMDUuMDQ1NTYwNDIwODA0M31d" marker-end="url(#my-svg_flowchart-v2-pointEnd)"/><path d="M1082.452,611L1081.459,615.167C1080.467,619.333,1078.481,627.667,1077.489,636C1076.496,644.333,1076.496,652.667,1087.552,661C1098.608,669.333,1120.72,677.667,1131.776,698.5C1142.832,719.333,1142.832,752.667,1142.832,786C1142.832,819.333,1142.832,852.667,1142.832,884.095C1142.832,915.524,1142.832,945.048,1142.832,974.571C1142.832,1004.095,1142.832,1033.619,1142.832,1052.547C1142.832,1071.476,1142.832,1079.809,1142.832,1088.143C1142.832,1096.476,1142.832,1104.809,1142.832,1113.143C1142.832,1121.476,1142.832,1129.809,1073.527,1146.195C1004.222,1162.581,865.612,1187.019,796.307,1199.238L727.002,1211.456" id="L_fleet_volumes_0" class="edge-thickness-normal edge-pattern-solid edge-thickness-normal edge-pattern-solid flowchart-link" style=";" data-edge="true" data-et="edge" data-id="L_fleet_volumes_0" data-points="W3sieCI6MTA4Mi40NTIwMTUyNjk4ODYzLCJ5Ijo2MTF9LHsieCI6MTA3Ni40OTYwOTM3NSwieSI6NjM2fSx7IngiOjEwNzYuNDk2MDkzNzUsInkiOjY2MX0seyJ4IjoxMTQyLjgzMjAzMTI1LCJ5Ijo2ODZ9LHsieCI6MTE0Mi44MzIwMzEyNSwieSI6Nzg2fSx7IngiOjExNDIuODMyMDMxMjUsInkiOjg4Nn0seyJ4IjoxMTQyLjgzMjAzMTI1LCJ5Ijo5NzQuNTcxMzE1NzY1MzgwOX0seyJ4IjoxMTQyLjgzMjAzMTI1LCJ5IjoxMDYzLjE0MjYzMTUzMDc2MTd9LHsieCI6MTE0Mi44MzIwMzEyNSwieSI6MTA4OC4xNDI2MzE1MzA3NjE3fSx7IngiOjExNDIuODMyMDMxMjUsInkiOjExMTMuMTQyNjMxNTMwNzYxN30seyJ4IjoxMTQyLjgzMjAzMTI1LCJ5IjoxMTM4LjE0MjYzMTUzMDc2MTd9LHsieCI6NzIzLjA2MjUsInkiOjEyMTIuMTUxMDA1NDk0Nzc3fV0=" marker-end="url(#my-svg_flowchart-v2-pointEnd)"/><path d="M616.508,861L613.487,865.167C610.466,869.333,604.424,877.667,601.404,896.595C598.383,915.524,598.383,945.048,598.383,974.571C598.383,1004.095,598.383,1033.619,598.383,1052.547C598.383,1071.476,598.383,1079.809,598.383,1088.143C598.383,1096.476,598.383,1104.809,598.383,1113.143C598.383,1121.476,598.383,1129.809,576.985,1141.158C555.587,1152.507,512.791,1166.871,491.393,1174.053L469.995,1181.236" id="L_elabftw_ports_0" class="edge-thickness-normal edge-pattern-solid edge-thickness-normal edge-pattern-solid flowchart-link" style=";" data-edge="true" data-et="edge" data-id="L_elabftw_ports_0" data-points="W3sieCI6NjE2LjUwNzgxMjUsInkiOjg2MX0seyJ4Ijo1OTguMzgyODEyNSwieSI6ODg2fSx7IngiOjU5OC4zODI4MTI1LCJ5Ijo5NzQuNTcxMzE1NzY1MzgwOX0seyJ4Ijo1OTguMzgyODEyNSwieSI6MTA2My4xNDI2MzE1MzA3NjE3fSx7IngiOjU5OC4zODI4MTI1LCJ5IjoxMDg4LjE0MjYzMTUzMDc2MTd9LHsieCI6NTk4LjM4MjgxMjUsInkiOjExMTMuMTQyNjMxNTMwNzYxN30seyJ4Ijo1OTguMzgyODEyNSwieSI6MTEzOC4xNDI2MzE1MzA3NjE3fSx7IngiOjQ2Ni4yMDMxMjUsInkiOjExODIuNTA4NDM1MDQwOTk3NX1d" marker-end="url(#my-svg_flowchart-v2-pointEnd)"/><path d="M497.368,184L492.083,188.167C486.797,192.333,476.227,200.667,470.942,209C465.656,217.333,465.656,225.667,465.656,244.5C465.656,263.333,465.656,292.667,465.656,322C465.656,351.333,465.656,380.667,465.656,399.5C465.656,418.333,465.656,426.667,465.656,435C465.656,443.333,465.656,451.667,465.656,470.5C465.656,489.333,465.656,518.667,465.656,548C465.656,577.333,465.656,606.667,465.656,625.5C465.656,644.333,465.656,652.667,413.547,661C361.438,669.333,257.219,677.667,205.109,698.5C153,719.333,153,752.667,153,786C153,819.333,153,852.667,153,884.095C153,915.524,153,945.048,153,974.571C153,1004.095,153,1033.619,153,1052.547C153,1071.476,153,1079.809,153,1088.143C153,1096.476,153,1104.809,153,1113.143C153,1121.476,153,1129.809,165.237,1139.854C177.474,1149.899,201.949,1161.655,214.186,1167.533L226.423,1173.411" id="L_grafana_ports_0" class="edge-thickness-normal edge-pattern-solid edge-thickness-normal edge-pattern-solid flowchart-link" style=";" data-edge="true" data-et="edge" data-id="L_grafana_ports_0" data-points="W3sieCI6NDk3LjM2Nzg5NzcyNzI3Mjc1LCJ5IjoxODR9LHsieCI6NDY1LjY1NjI1LCJ5IjoyMDl9LHsieCI6NDY1LjY1NjI1LCJ5IjoyMzR9LHsieCI6NDY1LjY1NjI1LCJ5IjozMjJ9LHsieCI6NDY1LjY1NjI1LCJ5Ijo0MTB9LHsieCI6NDY1LjY1NjI1LCJ5Ijo0MzV9LHsieCI6NDY1LjY1NjI1LCJ5Ijo0NjB9LHsieCI6NDY1LjY1NjI1LCJ5Ijo1NDh9LHsieCI6NDY1LjY1NjI1LCJ5Ijo2MzZ9LHsieCI6NDY1LjY1NjI1LCJ5Ijo2NjF9LHsieCI6MTUzLCJ5Ijo2ODZ9LHsieCI6MTUzLCJ5Ijo3ODZ9LHsieCI6MTUzLCJ5Ijo4ODZ9LHsieCI6MTUzLCJ5Ijo5NzQuNTcxMzE1NzY1MzgwOX0seyJ4IjoxNTMsInkiOjEwNjMuMTQyNjMxNTMwNzYxN30seyJ4IjoxNTMsInkiOjEwODguMTQyNjMxNTMwNzYxN30seyJ4IjoxNTMsInkiOjExMTMuMTQyNjMxNTMwNzYxN30seyJ4IjoxNTMsInkiOjExMzguMTQyNjMxNTMwNzYxN30seyJ4IjoyMzAuMDI4NTg2NjQ3NzI3MjUsInkiOjExNzUuMTQyNjMxNTMwNzYxN31d" marker-end="url(#my-svg_flowchart-v2-pointEnd)"/><path d="M604.186,385L599.848,389.167C595.509,393.333,586.833,401.667,582.495,410C578.156,418.333,578.156,426.667,578.156,435C578.156,443.333,578.156,451.667,578.156,470.5C578.156,489.333,578.156,518.667,578.156,548C578.156,577.333,578.156,606.667,578.156,625.5C578.156,644.333,578.156,652.667,527.243,661C476.331,669.333,374.505,677.667,323.592,698.5C272.68,719.333,272.68,752.667,272.68,786C272.68,819.333,272.68,852.667,272.68,884.095C272.68,915.524,272.68,945.048,272.68,974.571C272.68,1004.095,272.68,1033.619,272.68,1052.547C272.68,1071.476,272.68,1079.809,272.68,1088.143C272.68,1096.476,272.68,1104.809,272.68,1113.143C272.68,1121.476,272.68,1129.809,276.741,1139.602C280.802,1149.395,288.925,1160.647,292.986,1166.273L297.047,1171.899" id="L_prometheus_ports_0" class="edge-thickness-normal edge-pattern-solid edge-thickness-normal edge-pattern-solid flowchart-link" style=";" data-edge="true" data-et="edge" data-id="L_prometheus_ports_0" data-points="W3sieCI6NjA0LjE4NjA3OTU0NTQ1NDUsInkiOjM4NX0seyJ4Ijo1NzguMTU2MjUsInkiOjQxMH0seyJ4Ijo1NzguMTU2MjUsInkiOjQzNX0seyJ4Ijo1NzguMTU2MjUsInkiOjQ2MH0seyJ4Ijo1NzguMTU2MjUsInkiOjU0OH0seyJ4Ijo1NzguMTU2MjUsInkiOjYzNn0seyJ4Ijo1NzguMTU2MjUsInkiOjY2MX0seyJ4IjoyNzIuNjc5Njg3NSwieSI6Njg2fSx7IngiOjI3Mi42Nzk2ODc1LCJ5Ijo3ODZ9LHsieCI6MjcyLjY3OTY4NzUsInkiOjg4Nn0seyJ4IjoyNzIuNjc5Njg3NSwieSI6OTc0LjU3MTMxNTc2NTM4MDl9LHsieCI6MjcyLjY3OTY4NzUsInkiOjEwNjMuMTQyNjMxNTMwNzYxN30seyJ4IjoyNzIuNjc5Njg3NSwieSI6MTA4OC4xNDI2MzE1MzA3NjE3fSx7IngiOjI3Mi42Nzk2ODc1LCJ5IjoxMTEzLjE0MjYzMTUzMDc2MTd9LHsieCI6MjcyLjY3OTY4NzUsInkiOjExMzguMTQyNjMxNTMwNzYxN30seyJ4IjoyOTkuMzg4NDA1NTM5NzcyNzUsInkiOjExNzUuMTQyNjMxNTMwNzYxN31d" marker-end="url(#my-svg_flowchart-v2-pointEnd)"/><path d="M690.129,611L686.738,615.167C683.347,619.333,676.564,627.667,673.173,636C669.781,644.333,669.781,652.667,606.931,661C544.081,669.333,418.38,677.667,355.53,698.5C292.68,719.333,292.68,752.667,292.68,786C292.68,819.333,292.68,852.667,292.68,884.095C292.68,915.524,292.68,945.048,292.68,974.571C292.68,1004.095,292.68,1033.619,292.68,1052.547C292.68,1071.476,292.68,1079.809,292.68,1088.143C292.68,1096.476,292.68,1104.809,292.68,1113.143C292.68,1121.476,292.68,1129.809,295.434,1139.545C298.188,1149.281,303.697,1160.419,306.452,1165.988L309.206,1171.557" id="L_mimir_ports_0" class="edge-thickness-normal edge-pattern-solid edge-thickness-normal edge-pattern-solid flowchart-link" style=";" data-edge="true" data-et="edge" data-id="L_mimir_ports_0" data-points="W3sieCI6NjkwLjEyOTI2MTM2MzYzNjQsInkiOjYxMX0seyJ4Ijo2NjkuNzgxMjUsInkiOjYzNn0seyJ4Ijo2NjkuNzgxMjUsInkiOjY2MX0seyJ4IjoyOTIuNjc5Njg3NSwieSI6Njg2fSx7IngiOjI5Mi42Nzk2ODc1LCJ5Ijo3ODZ9LHsieCI6MjkyLjY3OTY4NzUsInkiOjg4Nn0seyJ4IjoyOTIuNjc5Njg3NSwieSI6OTc0LjU3MTMxNTc2NTM4MDl9LHsieCI6MjkyLjY3OTY4NzUsInkiOjEwNjMuMTQyNjMxNTMwNzYxN30seyJ4IjoyOTIuNjc5Njg3NSwieSI6MTA4OC4xNDI2MzE1MzA3NjE3fSx7IngiOjI5Mi42Nzk2ODc1LCJ5IjoxMTEzLjE0MjYzMTUzMDc2MTd9LHsieCI6MjkyLjY3OTY4NzUsInkiOjExMzguMTQyNjMxNTMwNzYxN30seyJ4IjozMTAuOTc5MzE0NjMwNjgxOCwieSI6MTE3NS4xNDI2MzE1MzA3NjE3fV0=" marker-end="url(#my-svg_flowchart-v2-pointEnd)"/><path d="M1053.816,611L1050.929,615.167C1048.042,619.333,1042.269,627.667,1039.383,636C1036.496,644.333,1036.496,652.667,931.233,661C825.97,669.333,615.444,677.667,510.181,698.5C404.918,719.333,404.918,752.667,404.918,786C404.918,819.333,404.918,852.667,404.918,884.095C404.918,915.524,404.918,945.048,404.918,974.571C404.918,1004.095,404.918,1033.619,404.918,1052.547C404.918,1071.476,404.918,1079.809,404.918,1088.143C404.918,1096.476,404.918,1104.809,404.918,1113.143C404.918,1121.476,404.918,1129.809,400.513,1139.617C396.108,1149.425,387.298,1160.707,382.893,1166.349L378.488,1171.99" id="L_fleet_ports_0" class="edge-thickness-normal edge-pattern-solid edge-thickness-normal edge-pattern-solid flowchart-link" style=";" data-edge="true" data-et="edge" data-id="L_fleet_ports_0" data-points="W3sieCI6MTA1My44MTU2NTE2MzM1MjI3LCJ5Ijo2MTF9LHsieCI6MTAzNi40OTYwOTM3NSwieSI6NjM2fSx7IngiOjEwMzYuNDk2MDkzNzUsInkiOjY2MX0seyJ4Ijo0MDQuOTE3OTY4NzUsInkiOjY4Nn0seyJ4Ijo0MDQuOTE3OTY4NzUsInkiOjc4Nn0seyJ4Ijo0MDQuOTE3OTY4NzUsInkiOjg4Nn0seyJ4Ijo0MDQuOTE3OTY4NzUsInkiOjk3NC41NzEzMTU3NjUzODA5fSx7IngiOjQwNC45MTc5Njg3NSwieSI6MTA2My4xNDI2MzE1MzA3NjE3fSx7IngiOjQwNC45MTc5Njg3NSwieSI6MTA4OC4xNDI2MzE1MzA3NjE3fSx7IngiOjQwNC45MTc5Njg3NSwieSI6MTExMy4xNDI2MzE1MzA3NjE3fSx7IngiOjQwNC45MTc5Njg3NSwieSI6MTEzOC4xNDI2MzE1MzA3NjE3fSx7IngiOjM3Ni4wMjY1MDAzNTUxMTM2LCJ5IjoxMTc1LjE0MjYzMTUzMDc2MTd9XQ==" marker-end="url(#my-svg_flowchart-v2-pointEnd)"/></g><g class="edgeLabels"><g class="edgeLabel"><g class="label" data-id="L_elabftw_mysql_0" transform="translate(0, 0)"><foreignObject width="0" height="0"><div xmlns="http://www.w3.org/1999/xhtml" class="labelBkg" style="display: table-cell; white-space: nowrap; line-height: 1.5; max-width: 200px; text-align: center;"><span class="edgeLabel"></span></div></foreignObject></g></g><g class="edgeLabel"><g class="label" data-id="L_fleet_elabftw_0" transform="translate(0, 0)"><foreignObject width="0" height="0"><div xmlns="http://www.w3.org/1999/xhtml" class="labelBkg" style="display: table-cell; white-space: nowrap; line-height: 1.5; max-width: 200px; text-align: center;"><span class="edgeLabel"></span></div></foreignObject></g></g><g class="edgeLabel"><g class="label" data-id="L_fleet_mysql_0" transform="translate(0, 0)"><foreignObject width="0" height="0"><div xmlns="http://www.w3.org/1999/xhtml" class="labelBkg" style="display: table-cell; white-space: nowrap; line-height: 1.5; max-width: 200px; text-align: center;"><span class="edgeLabel"></span></div></foreignObject></g></g><g class="edgeLabel"><g class="label" data-id="L_sim_fleet_0" transform="translate(0, 0)"><foreignObject width="0" height="0"><div xmlns="http://www.w3.org/1999/xhtml" class="labelBkg" style="display: table-cell; white-space: nowrap; line-height: 1.5; max-width: 200px; text-align: center;"><span class="edgeLabel"></span></div></foreignObject></g></g><g class="edgeLabel"><g class="label" data-id="L_prometheus_fleet_0" transform="translate(0, 0)"><foreignObject width="0" height="0"><div xmlns="http://www.w3.org/1999/xhtml" class="labelBkg" style="display: table-cell; white-space: nowrap; line-height: 1.5; max-width: 200px; text-align: center;"><span class="edgeLabel"></span></div></foreignObject></g></g><g class="edgeLabel"><g class="label" data-id="L_prometheus_mimir_0" transform="translate(0, 0)"><foreignObject width="0" height="0"><div xmlns="http://www.w3.org/1999/xhtml" class="labelBkg" style="display: table-cell; white-space: nowrap; line-height: 1.5; max-width: 200px; text-align: center;"><span class="edgeLabel"></span></div></foreignObject></g></g><g class="edgeLabel"><g class="label" data-id="L_grafana_prometheus_0" transform="translate(0, 0)"><foreignObject width="0" height="0"><div xmlns="http://www.w3.org/1999/xhtml" class="labelBkg" style="display: table-cell; white-space: nowrap; line-height: 1.5; max-width: 200px; text-align: center;"><span class="edgeLabel"></span></div></foreignObject></g></g><g class="edgeLabel"><g class="label" data-id="L_grafana_mimir_0" transform="translate(0, 0)"><foreignObject width="0" height="0"><div xmlns="http://www.w3.org/1999/xhtml" class="labelBkg" style="display: table-cell; white-space: nowrap; line-height: 1.5; max-width: 200px; text-align: center;"><span class="edgeLabel"></span></div></foreignObject></g></g><g class="edgeLabel"><g class="label" data-id="L_mcp_elabftw_0" transform="translate(0, 0)"><foreignObject width="0" height="0"><div xmlns="http://www.w3.org/1999/xhtml" class="labelBkg" style="display: table-cell; white-space: nowrap; line-height: 1.5; max-width: 200px; text-align: center;"><span class="edgeLabel"></span></div></foreignObject></g></g><g class="edgeLabel"><g class="label" data-id="L_mysql_volumes_0" transform="translate(0, 0)"><foreignObject width="0" height="0"><div xmlns="http://www.w3.org/1999/xhtml" class="labelBkg" style="display: table-cell; white-space: nowrap; line-height: 1.5; max-width: 200px; text-align: center;"><span class="edgeLabel"></span></div></foreignObject></g></g><g class="edgeLabel"><g class="label" data-id="L_mimir_volumes_0" transform="translate(0, 0)"><foreignObject width="0" height="0"><div xmlns="http://www.w3.org/1999/xhtml" class="labelBkg" style="display: table-cell; white-space: nowrap; line-height: 1.5; max-width: 200px; text-align: center;"><span class="edgeLabel"></span></div></foreignObject></g></g><g class="edgeLabel"><g class="label" data-id="L_fleet_volumes_0" transform="translate(0, 0)"><foreignObject width="0" height="0"><div xmlns="http://www.w3.org/1999/xhtml" class="labelBkg" style="display: table-cell; white-space: nowrap; line-height: 1.5; max-width: 200px; text-align: center;"><span class="edgeLabel"></span></div></foreignObject></g></g><g class="edgeLabel"><g class="label" data-id="L_elabftw_ports_0" transform="translate(0, 0)"><foreignObject width="0" height="0"><div xmlns="http://www.w3.org/1999/xhtml" class="labelBkg" style="display: table-cell; white-space: nowrap; line-height: 1.5; max-width: 200px; text-align: center;"><span class="edgeLabel"></span></div></foreignObject></g></g><g class="edgeLabel"><g class="label" data-id="L_grafana_ports_0" transform="translate(0, 0)"><foreignObject width="0" height="0"><div xmlns="http://www.w3.org/1999/xhtml" class="labelBkg" style="display: table-cell; white-space: nowrap; line-height: 1.5; max-width: 200px; text-align: center;"><span class="edgeLabel"></span></div></foreignObject></g></g><g class="edgeLabel"><g class="label" data-id="L_prometheus_ports_0" transform="translate(0, 0)"><foreignObject width="0" height="0"><div xmlns="http://www.w3.org/1999/xhtml" class="labelBkg" style="display: table-cell; white-space: nowrap; line-height: 1.5; max-width: 200px; text-align: center;"><span class="edgeLabel"></span></div></foreignObject></g></g><g class="edgeLabel"><g class="label" data-id="L_mimir_ports_0" transform="translate(0, 0)"><foreignObject width="0" height="0"><div xmlns="http://www.w3.org/1999/xhtml" class="labelBkg" style="display: table-cell; white-space: nowrap; line-height: 1.5; max-width: 200px; text-align: center;"><span class="edgeLabel"></span></div></foreignObject></g></g><g class="edgeLabel"><g class="label" data-id="L_fleet_ports_0" transform="translate(0, 0)"><foreignObject width="0" height="0"><div xmlns="http://www.w3.org/1999/xhtml" class="labelBkg" style="display: table-cell; white-space: nowrap; line-height: 1.5; max-width: 200px; text-align: center;"><span class="edgeLabel"></span></div></foreignObject></g></g></g><g class="nodes"><g class="node default service" id="flowchart-elabftw-0" transform="translate(670.8828125, 786)"><rect class="basic label-container" style="fill:#e3f2fd !important;stroke:#1976d2 !important" x="-130" y="-75" width="260" height="150"/><g class="label" style="" transform="translate(-100, -60)"><rect/><foreignObject width="200" height="120"><div xmlns="http://www.w3.org/1999/xhtml" style="display: table; white-space: break-spaces; line-height: 1.5; max-width: 200px; text-align: center; width: 200px;"><span class="nodeLabel"><p>eLabFTW<br />nginx + php-fpm<br />Port: 8443<br />Image: elabftw/elabimg:custom</p></span></div></foreignObject></g></g><g class="node default data" id="flowchart-mysql-1" transform="translate(724.37109375, 974.5713157653809)"><path d="M0,13.380874920118515 a71.9765625,13.380874920118515 0,0,0 143.953125,0 a71.9765625,13.380874920118515 0,0,0 -143.953125,0 l0,100.38087492011852 a71.9765625,13.380874920118515 0,0,0 143.953125,0 l0,-100.38087492011852" class="basic label-container" style="fill:#f3e5f5 !important;stroke:#7b1fa2 !important" transform="translate(-71.9765625, -63.57131238017777)"/><g class="label" style="" transform="translate(-64.4765625, -26)"><rect/><foreignObject width="128.953125" height="72"><div xmlns="http://www.w3.org/1999/xhtml" style="display: table-cell; white-space: nowrap; line-height: 1.5; max-width: 200px; text-align: center;"><span class="nodeLabel"><p>MySQL 8.0<br />Port: 3306<br />Data: ./data/mysql</p></span></div></foreignObject></g></g><g class="node default service" id="flowchart-fleet-2" transform="translate(1097.4609375, 548)"><rect class="basic label-container" style="fill:#e3f2fd !important;stroke:#1976d2 !important" x="-126.9296875" y="-63" width="253.859375" height="126"/><g class="label" style="" transform="translate(-96.9296875, -48)"><rect/><foreignObject width="193.859375" height="96"><div xmlns="http://www.w3.org/1999/xhtml" style="display: table-cell; white-space: nowrap; line-height: 1.5; max-width: 200px; text-align: center;"><span class="nodeLabel"><p>Monad Fleet Service<br />Python gRPC + HTTP<br />Port: 50060/9108<br />Image: monad-fleet-service</p></span></div></foreignObject></g></g><g class="node default service" id="flowchart-sim-3" transform="translate(1097.4609375, 322)"><rect class="basic label-container" style="fill:#e3f2fd !important;stroke:#1976d2 !important" x="-104.2578125" y="-51" width="208.515625" height="102"/><g class="label" style="" transform="translate(-74.2578125, -36)"><rect/><foreignObject width="148.515625" height="72"><div xmlns="http://www.w3.org/1999/xhtml" style="display: table-cell; white-space: nowrap; line-height: 1.5; max-width: 200px; text-align: center;"><span class="nodeLabel"><p>Model Device<br />Python Agent<br />Image: model-device</p></span></div></foreignObject></g></g><g class="node default service" id="flowchart-prometheus-4" transform="translate(669.78125, 322)"><rect class="basic label-container" style="fill:#e3f2fd !important;stroke:#1976d2 !important" x="-130" y="-63" width="260" height="126"/><g class="label" style="" transform="translate(-100, -48)"><rect/><foreignObject width="200" height="96"><div xmlns="http://www.w3.org/1999/xhtml" style="display: table; white-space: break-spaces; line-height: 1.5; max-width: 200px; text-align: center; width: 200px;"><span class="nodeLabel"><p>Prometheus<br />Port: 9090<br />Config: ./observability/prometheus</p></span></div></foreignObject></g></g><g class="node default service" id="flowchart-mimir-5" transform="translate(741.40625, 548)"><rect class="basic label-container" style="fill:#e3f2fd !important;stroke:#1976d2 !important" x="-128.25" y="-63" width="256.5" height="126"/><g class="label" style="" transform="translate(-98.25, -48)"><rect/><foreignObject width="196.5" height="96"><div xmlns="http://www.w3.org/1999/xhtml" style="display: table-cell; white-space: nowrap; line-height: 1.5; max-width: 200px; text-align: center;"><span class="nodeLabel"><p>Mimir<br />Port: 9009<br />Data: ./data/mimir<br />Config: ./observability/mimir</p></span></div></foreignObject></g></g><g class="node default service" id="flowchart-grafana-6" transform="translate(577.28125, 121)"><rect class="basic label-container" style="fill:#e3f2fd !important;stroke:#1976d2 !important" x="-130" y="-63" width="260" height="126"/><g class="label" style="" transform="translate(-100, -48)"><rect/><foreignObject width="200" height="96"><div xmlns="http://www.w3.org/1999/xhtml" style="display: table; white-space: break-spaces; line-height: 1.5; max-width: 200px; text-align: center; width: 200px;"><span class="nodeLabel"><p>Grafana<br />Port: 3000<br />Config: ./observability/grafana</p></span></div></foreignObject></g></g><g class="node default optional" id="flowchart-mcp-7" transform="translate(214.71875, 548)"><rect class="basic label-container" style="fill:#fff3e0 !important;stroke:#f57c00 !important" x="-93.4375" y="-63" width="186.875" height="126"/><g class="label" style="" transform="translate(-63.4375, -48)"><rect/><foreignObject width="126.875" height="96"><div xmlns="http://www.w3.org/1999/xhtml" style="display: table-cell; white-space: nowrap; line-height: 1.5; max-width: 200px; text-align: center;"><span class="nodeLabel"><p>eLab MCP Server<br />stdio mode<br />Profile: mcp<br />Image: elab-mcp</p></span></div></foreignObject></g></g><g class="node default host" id="flowchart-volumes-8" transform="translate(643.703125, 1226.1426315307617)"><rect class="basic label-container" style="fill:#e8f5e8 !important;stroke:#388e3c !important" x="-79.359375" y="-63" width="158.71875" height="126"/><g class="label" style="" transform="translate(-49.359375, -48)"><rect/><foreignObject width="98.71875" height="96"><div xmlns="http://www.w3.org/1999/xhtml" style="display: table-cell; white-space: nowrap; line-height: 1.5; max-width: 200px; text-align: center;"><span class="nodeLabel"><p>Host Volumes<br />./data/mysql<br />./data/mimir<br />./data/fleet</p></span></div></foreignObject></g></g><g class="node default host" id="flowchart-ports-9" transform="translate(336.203125, 1226.1426315307617)"><rect class="basic label-container" style="fill:#e8f5e8 !important;stroke:#388e3c !important" x="-130" y="-51" width="260" height="102"/><g class="label" style="" transform="translate(-100, -36)"><rect/><foreignObject width="200" height="72"><div xmlns="http://www.w3.org/1999/xhtml" style="display: table; white-space: break-spaces; line-height: 1.5; max-width: 200px; text-align: center; width: 200px;"><span class="nodeLabel"><p>Exposed Ports<br />8443, 3000, 9090, 9009, 50060, 9108</p></span></div></foreignObject></g></g><g class="node default host" id="flowchart-env-10" transform="translate(1149.87109375, 1226.1426315307617)"><rect class="basic label-container" style="fill:#e8f5e8 !important;stroke:#388e3c !important" x="-109.890625" y="-51" width="219.78125" height="102"/><g class="label" style="" transform="translate(-79.890625, -36)"><rect/><foreignObject width="159.78125" height="72"><div xmlns="http://www.w3.org/1999/xhtml" style="display: table-cell; white-space: nowrap; line-height: 1.5; max-width: 200px; text-align: center;"><span class="nodeLabel"><p>Environment Variables<br />ELAB_API_KEY<br />FLEET_MANAGER_*</p></span></div></foreignObject></g></g></g></g></g></svg>